{
  "accessors": [
    {
      "bufferView": 2,
      "componentType": 5126,
      "count": 4728,
      "max": [
        5.105185031890869,
        10.0,
        5.0
      ],
      "min": [
        -5.100162506103516,
        -10.0,
        0.0
      ],
      "type": "VEC3"
    },
    {
      "bufferView": 2,
      "byteOffset": 56736,
      "componentType": 5126,
      "count": 4728,
      "max": [
        1.0,
        1.0,
        1.0
      ],
      "min": [
        -1.0,
        -1.0,
        -1.0
      ],
      "type": "VEC3"
    },
    {
      "bufferView": 3,
      "componentType": 5126,
      "count": 4728,
      "max": [
        1.0,
        0.9252632856369019,
        1.0,
        1.0
      ],
      "min": [
        -1.0,
        -1.0,
        -1.0,
        1.0
      ],
      "type": "VEC4"
    },
    {
      "bufferView": 1,
      "componentType": 5126,
      "count": 4728,
      "max": [
        0.999500036239624,
        0.985424280166626
      ],
      "min": [
        0.0005000000237487257,
        0.0005000000237487257
      ],
      "type": "VEC2"
    },
    {
      "bufferView": 0,
      "componentType": 5125,
      "count": 19392,
      "type": "SCALAR"
    },
    {
      "bufferView": 2,
      "byteOffset": 113472,
      "componentType": 5126,
      "count": 1725,
      "max": [
        2.0,
        1.9696155786514282,
        2.0
      ],
      "min": [
        -2.0,
        -1.9696156978607178,
        0.0
      ],
      "type": "VEC3"
    },
    {
      "bufferView": 2,
      "byteOffset": 134172,
      "componentType": 5126,
      "count": 1725,
      "max": [
        1.0,
        1.0,
        1.0
      ],
      "min": [
        -1.0,
        -1.0,
        -1.0
      ],
      "type": "VEC3"
    },
    {
      "bufferView": 3,
      "byteOffset": 75648,
      "componentType": 5126,
      "count": 1725,
      "max": [
        0.9986827969551086,
        0.7470278143882751,
        0.78618323802948,
        1.0
      ],
      "min": [
        -0.7514802813529968,
        -0.7411950826644897,
        -1.0,
        1.0
      ],
      "type": "VEC4"
    },
    {
      "bufferView": 1,
      "byteOffset": 37824,
      "componentType": 5126,
      "count": 1725,
      "max": [
        0.9866806268692017,
        0.9888392686843872
      ],
      "min": [
        0.013271946460008621,
        0.00922231376171112
      ],
      "type": "VEC2"
    },
    {
      "bufferView": 0,
      "byteOffset": 77568,
      "componentType": 5125,
      "count": 6738,
      "type": "SCALAR"
    },
    {
      "bufferView": 2,
      "byteOffset": 154872,
      "componentType": 5126,
      "count": 12760,
      "max": [
        0.5286846160888672,
        0.5,
        0.5
      ],
      "min": [
        -0.5,
        -0.5000066757202148,
        -40.99589157104492
      ],
      "type": "VEC3"
    },
    {
      "bufferView": 2,
      "byteOffset": 307992,
      "componentType": 5126,
      "count": 12760,
      "max": [
        1.0,
        1.0,
        1.0
      ],
      "min": [
        -1.0,
        -1.0,
        -1.0
      ],
      "type": "VEC3"
    },
    {
      "bufferView": 3,
      "byteOffset": 103248,
      "componentType": 5126,
      "count": 12760,
      "max": [
        1.0,
        1.0,
        6.515615069702108e-08,
        1.0
      ],
      "min": [
        -1.0,
        -1.0,
        -1.0,
        1.0
      ],
      "type": "VEC4"
    },
    {
      "bufferView": 1,
      "byteOffset": 51624,
      "componentType": 5126,
      "count": 12760,
      "max": [
        0.9584046006202698,
        0.9749218225479126
      ],
      "min": [
        0.07882434129714966,
        0.019896555691957474
      ],
      "type": "VEC2"
    },
    {
      "bufferView": 0,
      "byteOffset": 104520,
      "componentType": 5125,
      "count": 50112,
      "type": "SCALAR"
    },
    {
      "bufferView": 4,
      "componentType": 5126,
      "count": 481,
      "max": [
        8.0
      ],
      "min": [
        0.0
      ],
      "type": "SCALAR"
    },
    {
      "bufferView": 5,
      "componentType": 5126,
      "count": 481,
      "max": [
        0.36756324768066406,
        -4.421235644258559e-08,
        2.590663433074951
      ],
      "min": [
        0.3640713691711426,
        -0.08387492597103119,
        2.589050054550171
      ],
      "type": "VEC3"
    },
    {
      "bufferView": 4,
      "byteOffset": 1924,
      "componentType": 5126,
      "count": 239,
      "max": [
        8.0
      ],
      "min": [
        0.0
      ],
      "type": "SCALAR"
    },
    {
      "bufferView": 5,
      "byteOffset": 5772,
      "componentType": 5126,
      "count": 239,
      "max": [
        1.0000001192092896,
        1.0000001192092896,
        1.0
      ],
      "min": [
        0.9999998211860657,
        0.9999998807907104,
        1.0
      ],
      "type": "VEC3"
    },
    {
      "bufferView": 4,
      "byteOffset": 2880,
      "componentType": 5126,
      "count": 481,
      "max": [
        8.0
      ],
      "min": [
        0.0
      ],
      "type": "SCALAR"
    },
    {
      "bufferView": 6,
      "componentType": 5126,
      "count": 481,
      "max": [
        3.7374571547843516e-05,
        1.893746684800135e-06,
        0.9999281764030457,
        1.0
      ],
      "min": [
        -0.0019614470656961203,
        -0.000235279236221686,
        -0.8648529648780823,
        -0.4873827397823334
      ],
      "type": "VEC4"
    },
    {
      "bufferView": 4,
      "byteOffset": 4804,
      "componentType": 5126,
      "count": 26,
      "max": [
        0.8333333134651184
      ],
      "min": [
        0.0
      ],
      "type": "SCALAR"
    },
    {
      "bufferView": 5,
      "byteOffset": 8640,
      "componentType": 5126,
      "count": 26,
      "max": [
        7.491066932678223,
        2.512284755706787,
        52.16785430908203
      ],
      "min": [
        7.491066932678223,
        2.512284755706787,
        11.41926383972168
      ],
      "type": "VEC3"
    }
  ],
  "animations": [
    {
      "channels": [
        {
          "sampler": 0,
          "target": {
            "node": 6,
            "path": "translation"
          }
        },
        {
          "sampler": 1,
          "target": {
            "node": 6,
            "path": "scale"
          }
        },
        {
          "sampler": 2,
          "target": {
            "node": 6,
            "path": "rotation"
          }
        },
        {
          "sampler": 3,
          "target": {
            "node": 9,
            "path": "translation"
          }
        }
      ],
      "name": "Take 001",
      "samplers": [
        {
          "input": 15,
          "interpolation": "LINEAR",
          "output": 16
        },
        {
          "input": 17,
          "interpolation": "LINEAR",
          "output": 18
        },
        {
          "input": 19,
          "interpolation": "LINEAR",
          "output": 20
        },
        {
          "input": 21,
          "interpolation": "LINEAR",
          "output": 22
        }
      ]
    }
  ],
  "asset": {
    "extras": {
      "author": "Javier Da Rosa (https://sketchfab.com/Javier_Da_Rosa)",
      "license": "CC-BY-4.0 (http://creativecommons.org/licenses/by/4.0/)",
      "source": "https://sketchfab.com/3d-models/beyblade-beads-launcher-prototype-228e9f7789ee4e2480da01969539c3ad",
      "title": "Beyblade Beads Launcher (prototype)"
    },
    "generator": "Sketchfab-12.68.0",
    "version": "2.0"
  },
  "bufferViews": [
    {
      "buffer": 0,
      "byteLength": 304968,
      "name": "floatBufferViews",
      "target": 34963
    },
    {
      "buffer": 0,
      "byteLength": 153704,
      "byteOffset": 304968,
      "byteStride": 8,
      "name": "floatBufferViews",
      "target": 34962
    },
    {
      "buffer": 0,
      "byteLength": 461112,
      "byteOffset": 458672,
      "byteStride": 12,
      "name": "floatBufferViews",
      "target": 34962
    },
    {
      "buffer": 0,
      "byteLength": 307408,
      "byteOffset": 919784,
      "byteStride": 16,
      "name": "floatBufferViews",
      "target": 34962
    },
    {
      "buffer": 0,
      "byteLength": 4908,
      "byteOffset": 1227192,
      "name": "floatBufferViews"
    },
    {
      "buffer": 0,
      "byteLength": 8952,
      "byteOffset": 1232100,
      "byteStride": 12,
      "name": "floatBufferViews"
    },
    {
      "buffer": 0,
      "byteLength": 7696,
      "byteOffset": 1241052,
      "byteStride": 16,
      "name": "floatBufferViews"
    }
  ],
  "buffers": [
    {
      "byteLength": 1248748,
      "uri": "scene.bin"
    }
  ],
  "extensionsUsed": [
    "KHR_materials_transmission"
  ],
  "images": [
    {
      "uri": "textures/01_-_Default_baseColor.png"
    },
    {
      "uri": "textures/01_-_Default_metallicRoughness.png"
    },
    {
      "uri": "textures/01_-_Default_normal.png"
    },
    {
      "uri": "textures/02_-_Default_baseColor.png"
    },
    {
      "uri": "textures/02_-_Default_metallicRoughness.png"
    },
    {
      "uri": "textures/02_-_Default_normal.png"
    },
    {
      "uri": "textures/03_-_Default_baseColor.png"
    },
    {
      "uri": "textures/03_-_Default_metallicRoughness.png"
    },
    {
      "uri": "textures/03_-_Default_normal.png"
    }
  ],
  "materials": [
    {
      "alphaMode": "BLEND",
      "doubleSided": true,
      "extensions": {
        "KHR_materials_transmission": {
          "transmissionFactor": 0.5
        }
      },
      "name": "01_-_Default",
      "normalTexture": {
        "index": 2
      },
      "pbrMetallicRoughness": {
        "baseColorFactor": [
          1.0,
          1.0,
          1.0,
          0.5
        ],
        "baseColorTexture": {
          "index": 0
        },
        "metallicRoughnessTexture": {
          "index": 1
        }
      }
    },
    {
      "name": "02_-_Default",
      "normalTexture": {
        "index": 5
      },
      "pbrMetallicRoughness": {
        "baseColorTexture": {
          "index": 3
        },
        "metallicRoughnessTexture": {
          "index": 4
        }
      }
    },
    {
      "name": "03_-_Default",
      "normalTexture": {
        "index": 8
      },
      "pbrMetallicRoughness": {
        "baseColorTexture": {
          "index": 6
        },
        "metallicRoughnessTexture": {
          "index": 7
        }
      }
    }
  ],
  "meshes": [
    {
      "name": "Box001_01 - Default_0",
      "primitives": [
        {
          "attributes": {
            "NORMAL": 1,
            "POSITION": 0,
            "TANGENT": 2,
            "TEXCOORD_0": 3
          },
          "indices": 4,
          "material": 0,
          "mode": 4
        }
      ]
    },
    {
      "name": "Cylinder001_02 - Default_0",
      "primitives": [
        {
          "attributes": {
            "NORMAL": 6,
            "POSITION": 5,
            "TANGENT": 7,
            "TEXCOORD_0": 8
          },
          "indices": 9,
          "material": 1,
          "mode": 4
        }
      ]
    },
    {
      "name": "Sphere002_03 - Default_0",
      "primitives": [
        {
          "attributes": {
            "NORMAL": 11,
            "POSITION": 10,
            "TANGENT": 12,
            "TEXCOORD_0": 13
          },
          "indices": 14,
          "material": 2,
          "mode": 4
        }
      ]
    }
  ],
  "nodes": [
    {
      "children": [
        1
      ],
      "matrix": [
        0.009999999776482582,
        0.0,
        0.0,
        0.0,
        0.0,
        2.2204459996194763e-18,
        -0.009999999776482582,
        0.0,
        0.0,
        0.009999999776482582,
        2.2204459996194763e-18,
        0.0,
        0.0,
        0.0,
        0.0,
        1.0
      ],
      "name": "Sketchfab_model"
    },
    {
      "children": [
        2
      ],
      "matrix": [
        1.0,
        0.0,
        0.0,
        0.0,
        0.0,
        0.0,
        1.0,
        0.0,
        0.0,
        -1.0,
        0.0,
        0.0,
        0.0,
        0.0,
        0.0,
        1.0
      ],
      "name": "7fed52872d1b425381a60646e30db41d.fbx"
    },
    {
      "children": [
        3
      ],
      "name": "Object_2"
    },
    {
      "children": [
        4,
        9,
        11
      ],
      "name": "RootNode"
    },
    {
      "children": [
        5,
        6
      ],
      "name": "Box001",
      "rotation": [
        -0.7071068286895752,
        -0.0,
        0.0,
        0.7071068286895752
      ],
      "translation": [
        5.0,
        0.0,
        0.0
      ]
    },
    {
      "mesh": 0,
      "name": "Box001_01 - Default_0"
    },
    {
      "children": [
        7
      ],
      "name": "Cylinder001",
      "rotation": [
        0.0,
        -7.346839692639297e-40,
        8.742277657347586e-08,
        1.0
      ],
      "translation": [
        0.36756324768066406,
        -4.565978883874777e-08,
        2.5897762775421143
      ]
    },
    {
      "children": [
        8
      ],
      "matrix": [
        0.7660440151570704,
        -0.6427881197113354,
        0.0,
        0.0,
        0.6427881197113354,
        0.7660440151570704,
        0.0,
        0.0,
        -0.0,
        0.0,
        1.0,
        0.0,
        -2.9349564556468977e-08,
        3.4977404084202135e-08,
        -1.0,
        1.0
      ],
      "name": "Object_7"
    },
    {
      "mesh": 1,
      "name": "Cylinder001_02 - Default_0"
    },
    {
      "children": [
        10
      ],
      "name": "Sphere002",
      "rotation": [
        8.146034247147327e-08,
        0.0,
        0.0,
        1.0
      ],
      "translation": [
        7.491066932678223,
        2.512284755706787,
        11.41926383972168
      ]
    },
    {
      "mesh": 2,
      "name": "Sphere002_03 - Default_0"
    },
    {
      "name": "TwistConstraint02",
      "rotation": [
        -0.7071068286895752,
        -0.0,
        0.0,
        0.7071068286895752
      ],
      "translation": [
        5.367563247680664,
        2.5897762775421143,
        4.565978883874777e-08
      ]
    }
  ],
  "samplers": [
    {
      "magFilter": 9729,
      "minFilter": 9987,
      "wrapS": 10497,
      "wrapT": 10497
    }
  ],
  "scene": 0,
  "scenes": [
    {
      "name": "Sketchfab_Scene",
      "nodes": [
        0
      ]
    }
  ],
  "textures": [
    {
      "sampler": 0,
      "source": 0
    },
    {
      "sampler": 0,
      "source": 1
    },
    {
      "sampler": 0,
      "source": 2
    },
    {
      "sampler": 0,
      "source": 3
    },
    {
      "sampler": 0,
      "source": 4
    },
    {
      "sampler": 0,
      "source": 5
    },
    {
      "sampler": 0,
      "source": 6
    },
    {
      "sampler": 0,
      "source": 7
    },
    {
      "sampler": 0,
      "source": 8
    }
  ]
}
